<svg width="144" height="43" viewBox="0 0 144 43" fill="none" xmlns="http://www.w3.org/2000/svg">
<path d="M60.8149 22.6128V26.9546H57.73V14.1577H62.8364C63.8149 14.1577 64.6792 14.3394 65.4292 14.7026C66.1851 15.0601 66.7681 15.5728 67.1782 16.2407C67.5942 16.9028 67.8022 17.6558 67.8022 18.4995C67.8022 19.7476 67.354 20.7466 66.4575 21.4966C65.5669 22.2407 64.3423 22.6128 62.7837 22.6128H60.8149ZM60.8149 20.231H62.8364C63.4341 20.231 63.8882 20.0815 64.1987 19.7827C64.5151 19.4839 64.6733 19.062 64.6733 18.5171C64.6733 17.9194 64.5122 17.4419 64.1899 17.0845C63.8677 16.7271 63.4282 16.5454 62.8716 16.5396H60.8149V20.231ZM72.4429 26.9546H69.4722V13.4546H72.4429V26.9546ZM79.6323 26.9546C79.5269 26.7612 79.4331 26.4771 79.3511 26.1021C78.8062 26.7876 78.0444 27.1304 77.0659 27.1304C76.1694 27.1304 75.4077 26.8608 74.7808 26.3218C74.1538 25.7769 73.8403 25.0942 73.8403 24.2739C73.8403 23.2427 74.2212 22.4634 74.9829 21.936C75.7446 21.4087 76.8521 21.145 78.3052 21.145H79.2192V20.644C79.2192 19.771 78.8413 19.3345 78.0854 19.3345C77.3823 19.3345 77.0308 19.6802 77.0308 20.3716H74.0688C74.0688 19.4517 74.4585 18.7046 75.2378 18.1304C76.0229 17.5562 77.022 17.269 78.2349 17.269C79.4478 17.269 80.4058 17.5649 81.1089 18.1567C81.812 18.7485 82.1724 19.5601 82.1899 20.5913V24.8013C82.2017 25.6743 82.3364 26.3423 82.5942 26.8052V26.9546H79.6323ZM77.7778 25.021C78.147 25.021 78.4517 24.9419 78.6919 24.7837C78.938 24.6255 79.1138 24.4468 79.2192 24.2476V22.7271H78.3579C77.3267 22.7271 76.811 23.1899 76.811 24.1157C76.811 24.3853 76.9019 24.605 77.0835 24.7749C77.2651 24.939 77.4966 25.021 77.7778 25.021ZM87.4985 22.8062L89.0806 17.4448H92.2534L88.3774 28.5454L88.2104 28.9497C87.6597 30.1802 86.687 30.7954 85.2925 30.7954C84.9058 30.7954 84.4985 30.7368 84.0708 30.6196V28.5015H84.4575C84.8735 28.5015 85.1899 28.4399 85.4067 28.3169C85.6294 28.1997 85.7935 27.9858 85.8989 27.6753L86.1362 27.0425L82.8315 17.4448H85.9956L87.4985 22.8062ZM102.616 23.4741L105.165 14.1577H108.61L104.303 26.9546H100.928L96.6567 14.1577H100.076L102.616 23.4741ZM112.539 26.9546H109.568V17.4448H112.539V26.9546ZM109.392 14.9927C109.392 14.5708 109.544 14.2251 109.849 13.9556C110.154 13.686 110.549 13.5513 111.036 13.5513C111.522 13.5513 111.917 13.686 112.222 13.9556C112.527 14.2251 112.679 14.5708 112.679 14.9927C112.679 15.4146 112.527 15.7603 112.222 16.0298C111.917 16.2993 111.522 16.4341 111.036 16.4341C110.549 16.4341 110.154 16.2993 109.849 16.0298C109.544 15.7603 109.392 15.4146 109.392 14.9927ZM113.998 22.1294C113.998 20.6235 114.323 19.437 114.973 18.5698C115.624 17.7026 116.532 17.269 117.698 17.269C118.547 17.269 119.262 17.603 119.842 18.271V13.4546H122.813V26.9546H120.15L120 25.9351C119.391 26.7319 118.618 27.1304 117.68 27.1304C116.549 27.1304 115.653 26.6968 114.991 25.8296C114.329 24.9624 113.998 23.729 113.998 22.1294ZM116.959 22.314C116.959 24.0015 117.452 24.8452 118.436 24.8452C119.092 24.8452 119.561 24.5698 119.842 24.019V20.3979C119.573 19.8354 119.11 19.5542 118.454 19.5542C117.54 19.5542 117.044 20.2925 116.968 21.769L116.959 22.314ZM129.097 27.1304C127.638 27.1304 126.458 26.6968 125.555 25.8296C124.653 24.9565 124.202 23.8228 124.202 22.4282V22.1821C124.202 21.2095 124.38 20.3511 124.738 19.6069C125.101 18.8628 125.628 18.2886 126.32 17.8843C127.011 17.4741 127.832 17.269 128.781 17.269C130.117 17.269 131.171 17.6851 131.945 18.5171C132.718 19.3433 133.105 20.4976 133.105 21.98V23.1313H127.216C127.322 23.6646 127.553 24.0835 127.911 24.3882C128.268 24.6929 128.731 24.8452 129.299 24.8452C130.237 24.8452 130.969 24.5171 131.497 23.8608L132.85 25.4604C132.481 25.9702 131.957 26.3774 131.277 26.6821C130.603 26.981 129.876 27.1304 129.097 27.1304ZM128.763 19.5542C127.896 19.5542 127.38 20.1284 127.216 21.2769H130.205V21.0483C130.216 20.5737 130.096 20.2075 129.844 19.9497C129.592 19.686 129.232 19.5542 128.763 19.5542ZM133.931 22.1118C133.931 21.1626 134.116 20.3188 134.485 19.5806C134.854 18.8364 135.384 18.2651 136.076 17.8667C136.767 17.4683 137.579 17.269 138.51 17.269C139.934 17.269 141.056 17.7114 141.876 18.5962C142.697 19.4751 143.107 20.6733 143.107 22.1909V22.2964C143.107 23.7788 142.694 24.9565 141.868 25.8296C141.047 26.6968 139.934 27.1304 138.528 27.1304C137.174 27.1304 136.087 26.7261 135.267 25.9175C134.447 25.103 134.004 24.0015 133.94 22.6128L133.931 22.1118ZM136.893 22.2964C136.893 23.1753 137.031 23.8198 137.306 24.23C137.582 24.6401 137.989 24.8452 138.528 24.8452C139.583 24.8452 140.122 24.0337 140.145 22.4106V22.1118C140.145 20.4067 139.6 19.5542 138.51 19.5542C137.52 19.5542 136.984 20.2896 136.902 21.7603L136.893 22.2964Z" fill="#352F2B"/>
<circle cx="21.3847" cy="21.2204" r="21.0585" fill="#FF5300"/>
<path d="M18.2122 17.9601C18.2114 16.6632 19.6149 15.8519 20.7384 16.4997L28.3219 20.8724C29.4454 21.5202 29.4463 23.1412 28.3235 23.7903L20.7449 28.1715C19.6222 28.8206 18.2178 28.0108 18.2171 26.7139L18.2122 17.9601Z" fill="white"/>
</svg>
