<svg width="84" height="13" viewBox="0 0 84 13" fill="none" xmlns="http://www.w3.org/2000/svg">
<path d="M5.56211 1.37208C5.81427 0.596024 6.91218 0.596025 7.16434 1.37208L8.06528 4.1449C8.17805 4.49196 8.50147 4.72694 8.86639 4.72694H11.7819C12.5979 4.72694 12.9372 5.77112 12.277 6.25075L9.91832 7.96445C9.62309 8.17894 9.49956 8.55915 9.61233 8.90621L10.5133 11.679C10.7654 12.4551 9.87719 13.1004 9.21704 12.6208L6.85834 10.9071C6.56311 10.6926 6.16334 10.6926 5.86811 10.9071L3.50941 12.6208C2.84925 13.1004 1.96102 12.4551 2.21318 11.679L3.11412 8.90621C3.22689 8.55915 3.10335 8.17894 2.80812 7.96445L0.449426 6.25075C-0.210728 5.77112 0.128546 4.72694 0.944542 4.72694H3.86005C4.22498 4.72694 4.5484 4.49196 4.66117 4.1449L5.56211 1.37208Z" fill="#FFC107"/>
<path d="M23.2516 1.37213C23.5037 0.59607 24.6016 0.596071 24.8538 1.37213L25.7547 4.14494C25.8675 4.49201 26.1909 4.72699 26.5558 4.72699H29.4714C30.2874 4.72699 30.6266 5.77117 29.9665 6.2508L27.6078 7.96449C27.3125 8.17899 27.189 8.55919 27.3018 8.90626L28.2027 11.6791C28.4549 12.4551 27.5666 13.1005 26.9065 12.6208L24.5478 10.9071C24.2526 10.6926 23.8528 10.6926 23.5576 10.9071L21.1989 12.6208C20.5387 13.1005 19.6505 12.4551 19.9026 11.6791L20.8036 8.90626C20.9163 8.55919 20.7928 8.17899 20.4976 7.96449L18.1389 6.2508C17.4787 5.77117 17.818 4.72699 18.634 4.72699H21.5495C21.9144 4.72699 22.2379 4.49201 22.3506 4.14494L23.2516 1.37213Z" fill="#FFC107"/>
<path d="M40.9409 1.37213C41.1931 0.59607 42.291 0.596071 42.5431 1.37213L43.4441 4.14494C43.5568 4.49201 43.8803 4.72699 44.2452 4.72699H47.1607C47.9767 4.72699 48.316 5.77117 47.6558 6.2508L45.2971 7.96449C45.0019 8.17899 44.8783 8.55919 44.9911 8.90626L45.8921 11.6791C46.1442 12.4551 45.256 13.1005 44.5958 12.6208L42.2371 10.9071C41.9419 10.6926 41.5421 10.6926 41.2469 10.9071L38.8882 12.6208C38.228 13.1005 37.3398 12.4551 37.592 11.6791L38.4929 8.90626C38.6057 8.55919 38.4821 8.17899 38.1869 7.96449L35.8282 6.2508C35.1681 5.77117 35.5073 4.72699 36.3233 4.72699H39.2388C39.6038 4.72699 39.9272 4.49201 40.04 4.14494L40.9409 1.37213Z" fill="#FFC107"/>
<path d="M58.6301 1.37213C58.8823 0.59607 59.9802 0.596071 60.2323 1.37213L61.1333 4.14494C61.246 4.49201 61.5695 4.72699 61.9344 4.72699H64.8499C65.6659 4.72699 66.0052 5.77117 65.345 6.2508L62.9863 7.96449C62.6911 8.17899 62.5676 8.55919 62.6803 8.90626L63.5813 11.6791C63.8334 12.4551 62.9452 13.1005 62.285 12.6208L59.9263 10.9071C59.6311 10.6926 59.2313 10.6926 58.9361 10.9071L56.5774 12.6208C55.9172 13.1005 55.029 12.4551 55.2812 11.6791L56.1821 8.90626C56.2949 8.55919 56.1713 8.17899 55.8761 7.96449L53.5174 6.2508C52.8573 5.77117 53.1965 4.72699 54.0125 4.72699H56.928C57.293 4.72699 57.6164 4.49201 57.7292 4.14494L58.6301 1.37213Z" fill="#FFC107"/>
<path d="M76.7945 1.52664C76.897 1.21123 77.3432 1.21123 77.4456 1.52664L78.3466 4.29945C78.5263 4.85253 79.0417 5.22699 79.6232 5.22699H82.5387C82.8704 5.22699 83.0083 5.65136 82.74 5.84629L80.3813 7.55998C79.9108 7.9018 79.7139 8.50769 79.8936 9.06077L80.7946 11.8336C80.8971 12.149 80.5361 12.4113 80.2678 12.2163L77.9091 10.5026C77.4386 10.1608 76.8015 10.1608 76.3311 10.5026L73.9724 12.2163C73.7041 12.4113 73.3431 12.149 73.4455 11.8336L74.3465 9.06077C74.5262 8.50769 74.3293 7.9018 73.8589 7.55998L71.5002 5.84629C71.2319 5.65136 71.3697 5.22699 71.7014 5.22699H74.6169C75.1984 5.22699 75.7138 4.85253 75.8935 4.29945L76.7945 1.52664Z" stroke="#FFC107"/>
</svg>
