<svg width="44" height="35" viewBox="0 0 44 35" fill="none" xmlns="http://www.w3.org/2000/svg">
<path d="M41.0078 0.715088H3.10244C2.54393 0.715088 2.0083 0.936954 1.61337 1.33188C1.21845 1.7268 0.996582 2.26243 0.996582 2.82094V32.3029C0.996582 32.8614 1.21845 33.397 1.61337 33.792C2.0083 34.1869 2.54393 34.4087 3.10244 34.4087H41.0078C41.5663 34.4087 42.1019 34.1869 42.4969 33.792C42.8918 33.397 43.1136 32.8614 43.1136 32.3029V2.82094C43.1136 2.26243 42.8918 1.7268 42.4969 1.33188C42.1019 0.936954 41.5663 0.715088 41.0078 0.715088ZM38.9019 23.8795C37.2264 23.8795 35.6195 24.5451 34.4347 25.7298C33.25 26.9146 32.5844 28.5215 32.5844 30.197H11.5258C11.5258 28.5215 10.8602 26.9146 9.67548 25.7298C8.49071 24.5451 6.88381 23.8795 5.20829 23.8795V11.2444C6.88381 11.2444 8.49071 10.5788 9.67548 9.39398C10.8602 8.20921 11.5258 6.60231 11.5258 4.92679H32.5844C32.5844 6.60231 33.25 8.20921 34.4347 9.39398C35.6195 10.5788 37.2264 11.2444 38.9019 11.2444V23.8795Z" fill="#352F2B"/>
<path d="M22.0554 9.13831C17.4099 9.13831 13.632 12.9162 13.632 17.5617C13.632 22.2072 17.4099 25.9851 22.0554 25.9851C26.7009 25.9851 30.4788 22.2072 30.4788 17.5617C30.4788 12.9162 26.7009 9.13831 22.0554 9.13831ZM22.0554 21.7734C19.7326 21.7734 17.8437 19.8845 17.8437 17.5617C17.8437 15.239 19.7326 13.35 22.0554 13.35C24.3781 13.35 26.2671 15.239 26.2671 17.5617C26.2671 19.8845 24.3781 21.7734 22.0554 21.7734Z" fill="#352F2B"/>
</svg>
