<svg width="43" height="38" viewBox="0 0 43 38" fill="none" xmlns="http://www.w3.org/2000/svg">
<g clip-path="url(#clip0_3_5907)">
<path d="M28.8535 27.9227V26.0116C31.432 24.5731 33.5331 20.9896 33.5331 17.4037C33.5331 11.6474 33.5331 6.97974 26.5136 6.97974C19.4941 6.97974 19.4941 11.6474 19.4941 17.4037C19.4941 20.9896 21.5953 24.5731 24.1738 26.0116V27.9227C16.2371 28.5643 10.1348 32.4258 10.1348 37.0934H42.8925C42.8925 32.4258 36.7902 28.5643 28.8535 27.9227Z" fill="#352F2B"/>
<path d="M12.7366 28.8168C14.7583 27.508 17.2736 26.5142 20.0416 25.9073C19.478 25.2455 18.9819 24.5301 18.5605 23.7716C17.4628 21.8248 16.8786 19.6355 16.8618 17.406C16.8618 14.2927 16.8618 11.3508 17.9802 8.94405C19.0659 6.60908 21.0197 5.16131 23.8017 4.61926C23.184 1.85112 21.5368 0.0327148 17.1542 0.0327148C10.1347 0.0327148 10.1347 4.70034 10.1347 10.4567C10.1347 14.0425 12.2359 17.6261 14.8144 19.0646V20.9756C6.87768 21.6173 0.775391 25.4788 0.775391 30.1464H10.9747C11.5059 29.6785 12.0932 29.2361 12.7366 28.8191V28.8168Z" fill="#352F2B"/>
</g>
<defs>
<clipPath id="clip0_3_5907">
<rect width="42.1171" height="37.063" fill="white" transform="translate(0.775391 0.0303955)"/>
</clipPath>
</defs>
</svg>
