<svg width="43" height="39" viewBox="0 0 43 39" fill="none" xmlns="http://www.w3.org/2000/svg">
<path d="M25.8664 4.82096H30.0781L38.5015 19.5619H40.6074C41.1659 19.5619 41.7015 19.7838 42.0965 20.1787C42.4914 20.5736 42.7133 21.1093 42.7133 21.6678C42.7133 22.2263 42.4914 22.7619 42.0965 23.1568C41.7015 23.5518 41.1659 23.7736 40.6074 23.7736H38.5015V36.4088C38.5015 36.9673 38.2797 37.5029 37.8848 37.8978C37.4898 38.2927 36.9542 38.5146 36.3957 38.5146H34.2898C33.7313 38.5146 33.1957 38.2927 32.8008 37.8978C32.4059 37.5029 32.184 36.9673 32.184 36.4088V34.3029H11.1255V36.4088C11.1255 36.9673 10.9036 37.5029 10.5087 37.8978C10.1137 38.2927 9.57811 38.5146 9.0196 38.5146H6.91375C6.35524 38.5146 5.81961 38.2927 5.42469 37.8978C5.02976 37.5029 4.8079 36.9673 4.8079 36.4088V23.7736H2.70204C2.14354 23.7736 1.60791 23.5518 1.21298 23.1568C0.818057 22.7619 0.596191 22.2263 0.596191 21.6678C0.596191 21.1093 0.818057 20.5736 1.21298 20.1787C1.60791 19.7838 2.14354 19.5619 2.70204 19.5619H4.8079L13.2313 4.82096H17.443V0.609253H25.8664V4.82096ZM33.995 19.5619L27.9723 9.03267H15.3372L9.31442 19.5619H33.995ZM12.1784 30.0912C13.0161 30.0912 13.8196 29.7584 14.412 29.166C15.0044 28.5736 15.3372 27.7702 15.3372 26.9324C15.3372 26.0947 15.0044 25.2912 14.412 24.6988C13.8196 24.1064 13.0161 23.7736 12.1784 23.7736C11.3406 23.7736 10.5372 24.1064 9.94479 24.6988C9.3524 25.2912 9.0196 26.0947 9.0196 26.9324C9.0196 27.7702 9.3524 28.5736 9.94479 29.166C10.5372 29.7584 11.3406 30.0912 12.1784 30.0912ZM31.1311 30.0912C31.9688 30.0912 32.7723 29.7584 33.3647 29.166C33.957 28.5736 34.2898 27.7702 34.2898 26.9324C34.2898 26.0947 33.957 25.2912 33.3647 24.6988C32.7723 24.1064 31.9688 23.7736 31.1311 23.7736C30.2933 23.7736 29.4899 24.1064 28.8975 24.6988C28.3051 25.2912 27.9723 26.0947 27.9723 26.9324C27.9723 27.7702 28.3051 28.5736 28.8975 29.166C29.4899 29.7584 30.2933 30.0912 31.1311 30.0912Z" fill="#352F2B"/>
</svg>
