<svg width="43" height="43" viewBox="0 0 43 43" fill="none" xmlns="http://www.w3.org/2000/svg">
<path d="M21.4335 0.503418C17.2686 0.503418 13.1971 1.73848 9.73404 4.05242C6.27099 6.36636 3.57186 9.65525 1.97799 13.5032C0.384124 17.3511 -0.0329047 21.5853 0.779643 25.6703C1.59219 29.7552 3.59782 33.5075 6.54291 36.4526C9.488 39.3977 13.2403 41.4033 17.3252 42.2158C21.4102 43.0284 25.6443 42.6114 29.4923 41.0175C33.3402 39.4236 36.6291 36.7245 38.9431 33.2614C41.257 29.7984 42.4921 25.7269 42.4921 21.5619C42.4857 15.9788 40.265 10.6262 36.3171 6.67835C32.3693 2.73049 27.0166 0.509788 21.4335 0.503418ZM4.4363 27.5787H6.39173L12.6747 31.4895C13.0064 31.6959 13.4053 31.7651 13.7871 31.6825C14.1688 31.6 14.5036 31.3722 14.7204 31.0473L16.2366 28.773C16.4292 28.4838 16.5156 28.1368 16.4814 27.791C16.4471 27.4452 16.2942 27.122 16.0486 26.8762L12.4085 23.2346L13.9126 18.5536H21.9194C22.2198 18.5535 22.5133 18.4635 22.7621 18.2951C23.0108 18.1268 23.2035 17.8878 23.3153 17.609L25.6949 11.6599C25.7739 11.4626 25.8101 11.2508 25.8013 11.0385C25.7925 10.8261 25.7388 10.6181 25.6437 10.428L22.2052 3.55089C25.3063 3.6749 28.3226 4.59874 30.9612 6.23268C33.5999 7.86662 35.7711 10.1551 37.2642 12.876C38.7572 15.5968 39.5212 18.6575 39.4821 21.7609C39.443 24.8642 38.602 27.9047 37.0409 30.587H31.9628C31.5639 30.587 31.1813 30.7455 30.8992 31.0276C30.6171 31.3097 30.4586 31.6923 30.4586 32.0912V37.1708C28.1686 38.5039 25.6123 39.3145 22.9726 39.5447C20.3328 39.775 17.6748 39.4192 15.1886 38.5027C12.7024 37.5862 10.4493 36.1318 8.59058 34.2434C6.73182 32.3549 5.31325 30.0791 4.4363 27.5787Z" fill="#1F1A17"/>
</svg>
